Coordinates
version=1
nRows=22
nColumns=24
inDegrees=yes

Units are S.I. units (second, meters, Newtons, ...)
Angles are in degrees.

endheader
time	pelvis_tilt	pelvis_list	pelvis_rotation	pelvis_tx	pelvis_ty	pelvis_tz	hip_flexion_r	hip_adduction_r	hip_rotation_r	knee_angle_r	ankle_angle_r	subtalar_angle_r	mtp_angle_r	hip_flexion_l	hip_adduction_l	hip_rotation_l	knee_angle_l	ankle_angle_l	subtalar_angle_l	mtp_angle_l	lumbar_extension	lumbar_bending	lumbar_rotation
      6.24000000	     13.16018521	     -2.02885732	     12.03575358	      2.46542288	      0.75148069	     -0.22485454	     -6.44188184	      8.31736211	      0.12573572	    -18.46055353	     29.38561826	      6.63627634	      0.00000000	     14.41938267	      1.11444898	      7.20974078	    -71.70787553	     20.89379868	      4.34396782	      0.00000000	    -28.50458667	      6.28965779	     -0.83034118
      6.24500000	     13.23075095	     -2.00064815	     11.72762713	      2.47241931	      0.75180033	     -0.22481630	     -7.41076669	      8.30516465	      0.20011802	    -17.87869259	     29.65198867	      7.21072680	      0.00000000	     15.14621749	      1.28239003	      6.94052061	    -70.68648828	     21.13054226	      3.14806380	      0.00000000	    -28.72990671	      6.16319777	     -0.42541962
      6.25000000	     13.27772352	     -2.00651368	     11.39208792	      2.47940104	      0.75200741	     -0.22475282	     -8.33805795	      8.31108517	      0.30457572	    -17.31103788	     29.89729814	      7.77209514	      0.00000000	     15.87223562	      1.38954549	      6.65652728	    -69.57065144	     21.27247412	      1.90048531	      0.00000000	    -28.93115776	      6.05714872	      0.01834247
      6.25500000	     13.33401192	     -2.00870429	     11.01681416	      2.48637592	      0.75214552	     -0.22467969	     -9.26209445	      8.28949528	      0.37989465	    -16.77300650	     30.16120220	      8.39048785	      0.00000000	     16.53764381	      1.46741415	      6.33382967	    -68.33748433	     21.37354386	      0.61032635	      0.00000000	    -29.15157490	      5.93897208	      0.46752305
      6.26000000	     13.39391758	     -2.02390253	     10.61283238	      2.49334194	      0.75220526	     -0.22458843	    -10.17283548	      8.26255287	      0.43426017	    -16.26639211	     30.42746282	      9.05108721	      0.00000000	     17.15463106	      1.50050809	      5.98917373	    -66.99434280	     21.43682829	     -0.68932818	      0.00000000	    -29.38275783	      5.82540030	      0.92745328
      6.26500000	     13.46972431	     -2.04954752	     10.20240977	      2.50029392	      0.75219484	     -0.22451500	    -11.08399584	      8.22802162	      0.42504616	    -15.78793497	     30.69529308	      9.78160032	      0.00000000	     17.70834179	      1.49749205	      5.64519225	    -65.54226312	     21.49092297	     -1.95218218	      0.00000000	    -29.63628165	      5.72423738	      1.41318966
      6.27000000	     13.50304605	     -2.12178843	      9.73955735	      2.50722203	      0.75206656	     -0.22438430	    -11.93310419	      8.22560202	      0.54333603	    -15.32418382	     30.94690132	     10.40699023	      0.00000000	     18.27697247	      1.41632271	      5.26726899	    -63.99986204	     21.44347756	     -3.15949789	      0.00000000	    -29.84800872	      5.64437077	      1.93007396
      6.27500000	     13.55867330	     -2.19807773	      9.25861381	      2.51414583	      0.75188712	     -0.22427945	    -12.79520587	      8.20398643	      0.60098448	    -14.88453817	     31.20376593	     11.09590030	      0.00000000	     18.76296238	      1.30380207	      4.87488939	    -62.34075724	     21.42527625	     -4.28572202	      0.00000000	    -30.08997855	      5.57126153	      2.45893272
      6.28000000	     13.61357614	     -2.30250033	      8.76241659	      2.52106159	      0.75163015	     -0.22415689	    -13.64184509	      8.19700669	      0.64032454	    -14.46661222	     31.44788242	     11.78489124	      0.00000000	     19.20203997	      1.13782394	      4.48375854	    -60.58153222	     21.42226691	     -5.27528595	      0.00000000	    -30.33558118	      5.51921152	      2.98345481
      6.28500000	     13.69409112	     -2.38974225	      8.25087039	      2.52798041	      0.75134250	     -0.22404650	    -14.50392057	      8.15411680	      0.62271161	    -14.08745496	     31.70149382	     12.52893459	      0.00000000	     19.54524651	      0.95907058	      4.05403937	    -58.69784262	     21.43435380	     -6.14341871	      0.00000000	    -30.61499551	      5.45285015	      3.47275415
      6.29000000	     13.77912467	     -2.51886972	      7.75340636	      2.53488640	      0.75098698	     -0.22397484	    -15.36477139	      8.14327363	      0.56787450	    -13.70627947	     31.91550731	     13.28328486	      0.00000000	     19.83817287	      0.73822482	      3.68312163	    -56.72358604	     21.45850422	     -6.81361271	      0.00000000	    -30.90067494	      5.43447844	      3.99580529
      6.29500000	     13.81732750	     -2.70089882	      7.20956101	      2.54177929	      0.75050975	     -0.22384673	    -16.15812090	      8.17238790	      0.66278257	    -13.35440908	     32.15731911	     13.89915409	      0.00000000	     20.13992005	      0.43106313	      3.26762337	    -54.67057560	     21.49900546	     -7.26435608	      0.00000000	    -31.13864035	      5.44483384	      4.54230573
      6.30000000	     13.88660119	     -2.88311511	      6.67819496	      2.54868831	      0.75001342	     -0.22375554	    -16.98489112	      8.18979312	      0.67722212	    -13.01232445	     32.36486881	     14.55673681	      0.00000000	     20.33902536	      0.11693130	      2.87060215	    -52.50797229	     21.58995063	     -7.51296760	      0.00000000	    -31.41172751	      5.46411934	      5.05981415
      6.30500000	     13.96592409	     -3.06663278	      6.16700709	      2.55563049	      0.74947266	     -0.22369921	    -17.82637011	      8.20118292	      0.63580952	    -12.67470730	     32.55851605	     15.22038969	      0.00000000	     20.46102737	     -0.20138607	      2.49155787	    -50.24556827	     21.71851942	     -7.53345720	      0.00000000	    -31.69132000	      5.49276475	      5.53434620
      6.31000000	     14.05326959	     -3.26071591	      5.67647925	      2.56259646	      0.74889047	     -0.22367859	    -18.67834366	      8.21635688	      0.53443838	    -12.34057518	     32.70599895	     15.88162808	      0.00000000	     20.51324300	     -0.52943246	      2.13431875	    -47.89513983	     21.86847682	     -7.33704104	      0.00000000	    -31.97664032	      5.54440314	      5.98264957
      6.31500000	     14.07923920	     -3.54117117	      5.16149802	      2.56954392	      0.74817754	     -0.22364796	    -19.43893839	      8.30281902	      0.55019666	    -12.05250335	     32.83748499	     16.45541687	      0.00000000	     20.59771062	     -0.94829405	      1.79343868	    -45.50283686	     22.01240645	     -6.91502415	      0.00000000	    -32.19829736	      5.66775659	      6.50578992
      6.32000000	     14.14767520	     -3.76796377	      4.67793623	      2.57658075	      0.74747306	     -0.22365391	    -20.27388690	      8.33350641	      0.49633582	    -11.73955218	     32.98132636	     17.05663094	      0.00000000	     20.54668304	     -1.31072520	      1.46093292	    -43.00713866	     22.20383316	     -6.24013179	      0.00000000	    -32.45407000	      5.74823981	      6.93094213
      6.32500000	     14.24343055	     -3.98110507	      4.24697964	      2.58368768	      0.74673595	     -0.22372616	    -21.15896008	      8.35550762	      0.38894950	    -11.40416986	     33.14420321	     17.69186473	      0.00000000	     20.40047764	     -1.63433737	      1.19935925	    -40.44550892	     22.39435291	     -5.41912422	      0.00000000	    -32.72483931	      5.84052263	      7.26437426
      6.33000000	     14.28086035	     -4.24133386	      3.80100050	      2.59082013	      0.74590204	     -0.22380546	    -21.95750384	      8.40484040	      0.29175649	    -11.12505751	     33.22678656	     18.27404158	      0.00000000	     20.27414829	     -2.00723297	      0.92503222	    -37.86203952	     22.52804741	     -4.44038930	      0.00000000	    -32.93029010	      5.96856814	      7.67218074
      6.33500000	     14.37664944	     -4.44915838	      3.41784694	      2.59806509	      0.74507552	     -0.22395498	    -22.85324267	      8.41109478	      0.10893365	    -10.80423674	     33.32422698	     18.91178236	      0.00000000	     20.01143633	     -2.29832832	      0.72379846	    -35.22766033	     22.64505324	     -3.37596130	      0.00000000	    -33.17713102	      6.07030732	      7.95974711
      6.34000000	     14.37530416	     -4.71565204	      2.99460264	      2.60533705	      0.74410923	     -0.22407639	    -23.60766186	      8.45047553	      0.04133315	    -10.57024827	     33.40826622	     19.48224686	      0.00000000	     19.82445345	     -2.66082732	      0.47784397	    -32.62366949	     22.72000109	     -2.17034573	      0.00000000	    -33.31527060	      6.21019687	      8.32255772
      6.34500000	     14.40737639	     -4.94378827	      2.61547002	      2.61272089	      0.74313322	     -0.22424767	    -24.41866992	      8.45467884	     -0.08164380	    -10.31846710	     33.48059091	     20.07449436	      0.00000000	     19.54758000	     -2.96352092	      0.27933874	    -30.02900573	     22.75483968	     -0.93666255	      0.00000000	    -33.46805917	      6.32866047	      8.60955191
